# xmcd CD database file
#
# Track frame offsets:
#	150
#	9729
#	24482
#	42883
#	57963
#	71917
#	85240
#	106376
#	119954
#	138487
#	169680
#
# Disc length: 2489 seconds
#
# Revision: 3
# Processed by: cddbd v1.5.1PL0 Copyright (c) Steve Scherf et al.
# Submitted via: CDex 1.51
#
DISCID=9c09b70b
DTITLE=Divokej Bill - Mezi Nima
DYEAR=2003
DGENRE=Country
TTITLE0=Bagdad
TTITLE1=Pocit
TTITLE2=Znameni
TTITLE3=Malovani
TTITLE4=Kvuli Holkam
TTITLE5=Vokna
TTITLE6=Armada
TTITLE7=Mrazik
TTITLE8=Kolem Tebe
TTITLE9=Kotle
TTITLE10=Na Ty Louce Zeleny
EXTD=YEAR: 2003
EXTT0=
EXTT1=
EXTT2=
EXTT3=
EXTT4=
EXTT5=
EXTT6=
EXTT7=
EXTT8=
EXTT9=
EXTT10=
PLAYORDER=
